<svg width="144" height="166" viewBox="0 0 144 166" fill="none" xmlns="http://www.w3.org/2000/svg">
<path opacity="0.9" d="M66.0241 114.08L16.9321 94.448C13.5601 93.104 13.5601 88.316 16.9321 86.972L66.0241 67.34C69.8641 65.804 74.1481 65.804 77.9881 67.34L127.08 86.972C130.452 88.316 130.452 93.104 127.08 94.448L77.9881 114.08C74.1481 115.616 69.8641 115.616 66.0241 114.08Z" fill="#00B4FF"/>
<path opacity="0.9" d="M65.268 86.996L10.044 64.904C6.25195 63.38 6.25195 58.016 10.044 56.492L65.268 34.4C69.588 32.672 74.4 32.672 78.72 34.4L133.944 56.492C137.736 58.016 137.736 63.38 133.944 64.904L78.72 86.996C74.4 88.724 69.588 88.724 65.268 86.996Z" fill="#0078FF"/>
<path opacity="0.9" d="M64.524 59.9002L3.16803 35.3602C-1.04397 33.6682 -1.04397 27.7042 3.16803 26.0122L64.524 1.47223C69.324 -0.447773 74.676 -0.447773 79.476 1.47223L140.832 26.0122C145.044 27.7042 145.044 33.6682 140.832 35.3602L79.476 59.9002C74.676 61.8202 69.324 61.8202 64.524 59.9002Z" fill="#003CFF"/>
<path d="M15.084 154.136C15.648 156.956 18.18 159.488 22.404 159.488C27.192 159.488 29.724 156.104 29.724 156.104L33.672 161.18C33.672 161.18 29.448 165.968 21.84 165.968C13.668 165.968 7.18799 159.488 7.18799 151.604C7.18799 143.72 13.668 137.24 21.552 137.24C29.436 137.24 35.352 143.156 35.352 151.04C35.352 153.008 35.076 154.136 35.076 154.136H15.072H15.084ZM15.084 148.784H27.768C27.204 145.964 24.948 143.708 21.564 143.708C18.18 143.708 15.924 145.964 15.084 148.784Z" fill="#222222"/>
<path d="M57.348 145.964C57.348 145.964 55.656 143.708 52.836 143.708C50.58 143.708 49.452 144.836 49.452 145.964C49.452 149.912 62.124 147.932 62.124 157.232C62.124 162.02 58.176 165.968 51.132 165.968C43.248 165.968 39.864 160.892 39.864 160.892L44.088 156.668C44.088 156.668 46.344 159.764 50.004 159.764C52.536 159.764 53.664 158.636 53.664 157.232C53.664 153.008 40.992 155.096 40.992 145.964C40.992 141.74 45.504 137.228 51.696 137.228C57.888 137.228 61.272 141.452 61.272 141.452L57.324 145.964H57.348Z" fill="#222222"/>
<path d="M72.5641 132.344L79.3201 129.62V138.344H84.9601V145.1H79.3201V156.092C79.3201 157.784 80.7241 159.188 82.7041 159.188C84.3961 159.188 85.5241 158.624 85.5241 158.624V165.104C85.5241 165.104 83.2681 165.944 80.4481 165.944C74.8081 165.944 71.7121 162.848 71.7121 156.368V145.1H66.9241V138.344H72.5641V132.332V132.344Z" fill="#222222"/>
<path d="M97.3561 134.132C94.8241 134.132 93.1321 132.44 93.1321 129.908C93.1321 127.376 94.8241 125.684 97.3561 125.684C100.176 125.684 101.868 127.376 101.868 129.908C101.868 132.44 100.176 134.132 97.3561 134.132ZM101.304 165.404H93.6961V140.516L101.304 137.792V165.392V165.404Z" fill="#222222"/>
<path d="M116.52 154.136C117.084 156.956 119.616 159.488 123.84 159.488C128.628 159.488 131.16 156.104 131.16 156.104L135.108 161.18C135.108 161.18 130.884 165.968 123.276 165.968C115.104 165.968 108.624 159.488 108.624 151.604C108.624 143.72 115.104 137.24 122.988 137.24C130.872 137.24 136.788 143.156 136.788 151.04C136.788 153.008 136.512 154.136 136.512 154.136H116.508H116.52ZM116.52 148.784H129.204C128.64 145.964 126.384 143.708 123 143.708C119.616 143.708 117.36 145.964 116.52 148.784Z" fill="#222222"/>
</svg>
